<svg width="32" height="30" viewBox="0 0 32 30" fill="none" xmlns="http://www.w3.org/2000/svg">
<path d="M15.6953 30C11.4052 30 10.8995 29.9784 9.22533 29.9085C7.91978 29.8676 6.63113 29.6144 5.41487 29.16C3.3105 28.3789 1.6465 26.7912 0.828361 24.7838C0.370245 23.6195 0.123152 22.3894 0.0976594 21.146C0 19.5526 0 19.0303 0 14.9701C0 10.8666 0.0226709 10.3876 0.0976594 8.79907C0.123709 7.55742 0.370794 6.32902 0.828361 5.16633C1.64562 3.15624 3.31231 1.56715 5.4201 0.788423C6.63847 0.349638 7.92671 0.113347 9.22882 0.0898204C10.8943 0 11.4418 0 15.6953 0C20.0202 0 20.5172 0.0216234 22.1652 0.0898204C23.4707 0.113551 24.7623 0.349816 25.9844 0.788423C28.0916 1.56804 29.7579 3.15681 30.5761 5.16633C31.042 6.34596 31.2904 7.59357 31.3103 8.85396C31.408 10.4474 31.408 10.9681 31.408 15.0266C31.408 19.0852 31.3835 19.6174 31.3103 21.1926C31.2843 22.4371 31.0367 23.6684 30.5779 24.8337C29.7576 26.8425 28.0911 28.4308 25.9844 29.2116C24.7641 29.6477 23.4751 29.8833 22.1722 29.9085C20.5067 30 19.9609 30 15.6953 30ZM15.636 2.63307C11.3703 2.63307 10.9274 2.65303 9.26195 2.72455C8.26789 2.73711 7.28344 2.91208 6.35135 3.24185C4.97497 3.74419 3.88585 4.77876 3.35355 6.08949C3.00514 6.98819 2.82167 7.93742 2.8112 8.89554C2.71877 10.5073 2.71877 10.9298 2.71877 14.9701C2.71877 18.9621 2.73446 19.4461 2.8112 21.0479C2.82681 21.9963 3.01017 22.9355 3.35355 23.8257C3.88663 25.1355 4.97556 26.1693 6.35135 26.6717C7.2828 27.0036 8.26766 27.1787 9.26195 27.189C10.9501 27.2821 11.3948 27.2821 15.636 27.2821C19.9138 27.2821 20.3568 27.2621 22.0082 27.189C23.003 27.1774 23.9882 27.0024 24.9206 26.6717C26.2886 26.165 27.3707 25.1335 27.9027 23.829C28.2504 22.9296 28.4339 21.9799 28.445 21.0213H28.4642C28.5392 19.4311 28.5392 19.007 28.5392 14.9434C28.5392 10.8799 28.52 10.4524 28.445 8.86394C28.4294 7.91658 28.246 6.97856 27.9027 6.08949C27.3719 4.78305 26.2897 3.74965 24.9206 3.24185C23.9884 2.91041 23.0031 2.7354 22.0082 2.72455C20.3219 2.63307 19.8807 2.63307 15.636 2.63307ZM15.6953 22.653C12.4341 22.655 9.49288 20.783 8.24326 17.9099C6.99364 15.0369 7.6818 11.7288 9.98678 9.52838C12.2918 7.328 15.7595 6.66878 18.7729 7.85817C21.7862 9.04756 23.7515 11.8513 23.7522 14.9617C23.7474 19.205 20.1441 22.6448 15.6953 22.653ZM15.6953 9.9684C12.8058 9.9684 10.4635 12.2025 10.4635 14.9584C10.4635 17.7143 12.8058 19.9484 15.6953 19.9484C18.5847 19.9484 20.927 17.7143 20.927 14.9584C20.9203 12.2052 18.5819 9.9748 15.6953 9.9684ZM24.0661 8.78244C23.0292 8.77876 22.1912 7.97503 22.1931 6.98604C22.195 5.99705 23.0361 5.19629 24.073 5.19629C25.1099 5.19629 25.9511 5.99704 25.953 6.98603C25.9535 7.46318 25.7547 7.92086 25.4006 8.25795C25.0466 8.59503 24.5663 8.78376 24.0661 8.78244Z" fill="#F4F4F4"/>
</svg>
