<svg width="32" height="30" viewBox="0 0 32 30" fill="none" xmlns="http://www.w3.org/2000/svg">
<path d="M31.7486 11.5941V11.2934V11.0829C31.3236 8.86443 30.2474 6.81229 28.6492 5.17316C26.9278 3.40883 24.805 2.05962 22.4504 1.23336C20.3576 0.449745 18.1382 0.0322652 15.8952 0.000286427C12.9386 -0.0160968 10.0229 0.670575 7.40292 2.00027C5.10885 3.04171 3.1832 4.7179 1.86798 6.81818C0.552762 8.91846 -0.0933365 11.3491 0.0108848 13.8047C0.244085 16.2324 1.22101 18.5369 2.81583 20.4211C4.4098 22.2844 6.45417 23.7361 8.76665 24.6466C10.1985 25.1812 11.6839 25.5692 13.1988 25.8045H13.3692C13.8032 25.8045 13.9116 25.985 13.9426 26.0301C13.9737 26.1383 13.9737 26.2527 13.9426 26.3609C13.9426 26.4511 13.9426 26.5263 13.9426 26.6015C13.7188 27.2652 13.65 27.9689 13.7412 28.6616C13.7833 29.0311 13.965 29.3724 14.2512 29.6195C14.5374 29.8667 14.9078 30.0022 15.2909 30C16.1889 29.893 17.0459 29.5728 17.7859 29.0676H17.8634C19.413 28.1955 20.8698 27.188 21.97 26.4211C24.6255 24.7329 27.0382 22.7103 29.1451 20.4061C31.1775 17.9173 32.1133 14.7498 31.7486 11.5941ZM9.91343 16.3009H7.17047C7.07221 16.3029 6.97453 16.2857 6.88333 16.2501C6.79212 16.2146 6.70928 16.1615 6.63978 16.094C6.57028 16.0266 6.51557 15.9462 6.47893 15.8577C6.4423 15.7692 6.4245 15.6744 6.42662 15.5791V9.98514C6.4245 9.88979 6.4423 9.79501 6.47893 9.70652C6.51557 9.61802 6.57028 9.53763 6.63978 9.47019C6.70928 9.40275 6.79212 9.34966 6.88333 9.31411C6.97453 9.27856 7.07221 9.26129 7.17047 9.26335C7.26945 9.26134 7.36785 9.27854 7.45989 9.31391C7.55194 9.34929 7.63578 9.40214 7.7065 9.46937C7.77722 9.53659 7.8334 9.61684 7.87175 9.70541C7.9101 9.79397 7.92984 9.88908 7.92982 9.98514V14.8422H9.91343C10.1148 14.8422 10.308 14.9199 10.4504 15.058C10.5928 15.1962 10.6728 15.3836 10.6728 15.5791C10.6728 15.6751 10.6531 15.7702 10.6147 15.8588C10.5764 15.9474 10.5202 16.0276 10.4495 16.0948C10.3787 16.1621 10.2949 16.2149 10.2028 16.2503C10.1108 16.2857 10.0124 16.3029 9.91343 16.3009ZM12.7804 15.564C12.7804 15.7634 12.6987 15.9547 12.5534 16.0957C12.4081 16.2367 12.211 16.3159 12.0055 16.3159C11.8 16.3159 11.6029 16.2367 11.4576 16.0957C11.3123 15.9547 11.2307 15.7634 11.2307 15.564V9.97011C11.2307 9.7707 11.3123 9.57946 11.4576 9.43845C11.6029 9.29745 11.8 9.21823 12.0055 9.21823C12.211 9.21823 12.4081 9.29745 12.5534 9.43845C12.6987 9.57946 12.7804 9.7707 12.7804 9.97011V15.564ZM19.568 15.564C19.5659 15.7184 19.5139 15.8681 19.4194 15.9922C19.3248 16.1164 19.1925 16.2085 19.0411 16.2558H18.8087C18.6903 16.257 18.5734 16.2303 18.4681 16.1779C18.3628 16.1255 18.2723 16.049 18.2043 15.955L15.5078 12.3761V15.564C15.5038 15.7568 15.422 15.9404 15.28 16.0754C15.138 16.2103 14.9472 16.2859 14.7485 16.2858C14.6469 16.292 14.5452 16.2779 14.4495 16.2444C14.3538 16.2109 14.2662 16.1587 14.1922 16.0911C14.1181 16.0234 14.0591 15.9417 14.0188 15.8511C13.9786 15.7604 13.9579 15.6627 13.9581 15.564V10.1355C13.9582 9.981 14.0073 9.83025 14.0988 9.70379C14.1903 9.57733 14.3198 9.48129 14.4695 9.42876C14.6207 9.38371 14.7826 9.38557 14.9326 9.4341C15.0826 9.48262 15.2133 9.57538 15.3064 9.69943L18.0183 13.3084V9.97011C18.0183 9.7707 18.1 9.57946 18.2453 9.43845C18.3906 9.29745 18.5877 9.21823 18.7932 9.21823C18.9987 9.21823 19.1958 9.29745 19.3411 9.43845C19.4864 9.57946 19.568 9.7707 19.568 9.97011V15.564ZM25.0384 16.1655H21.3192C21.2209 16.1676 21.1232 16.1503 21.032 16.1148C20.9408 16.0792 20.858 16.0261 20.7885 15.9587C20.719 15.8912 20.6643 15.8109 20.6276 15.7224C20.591 15.6339 20.5732 15.5391 20.5753 15.4437V9.84981C20.5753 9.65837 20.6537 9.47478 20.7932 9.33942C20.9327 9.20406 21.1219 9.12801 21.3192 9.12801H24.9145C25.12 9.12801 25.317 9.20722 25.4624 9.34823C25.6077 9.48923 25.6893 9.68047 25.6893 9.87988C25.6893 10.0793 25.6077 10.2705 25.4624 10.4115C25.317 10.5525 25.12 10.6318 24.9145 10.6318H22.063V11.9701H24.3876C24.5848 11.9701 24.774 12.0461 24.9135 12.1815C25.053 12.3169 25.1314 12.5004 25.1314 12.6919C25.1315 12.8847 25.0536 13.0699 24.9145 13.2077C24.7754 13.3454 24.5863 13.4248 24.3876 13.4287H22.063V14.767H25.0384C25.2439 14.767 25.441 14.8463 25.5863 14.9873C25.7316 15.1283 25.8133 15.3195 25.8133 15.5189C25.8133 15.7183 25.7316 15.9096 25.5863 16.0506C25.441 16.1916 25.2439 16.2708 25.0384 16.2708V16.1655Z" fill="#F4F4F4"/>
</svg>
