<svg width="507" height="238" viewBox="0 0 507 238" fill="none" xmlns="http://www.w3.org/2000/svg">
<g filter="url(#filter0_d)">
<path d="M82 90.4L88.64 72H88.96L95.6 90.4H82ZM60.4 114H73.2L78 101.2H99.6L104.4 114H117.2L95.6 58H82L60.4 114ZM139.578 90.4L146.218 72H146.538L153.178 90.4H139.578ZM117.978 114H130.778L135.578 101.2H157.178L161.978 114H174.778L153.178 58H139.578L117.978 114ZM223.594 96C222.474 97.52 221.114 98.8 219.514 100C216.714 102 212.794 104 207.594 104C197.594 104 189.594 96 189.594 86C189.594 76 197.594 68 207.594 68C212.634 68 216.474 70 219.114 72C220.634 73.2 221.994 74.48 223.194 76L231.194 68C229.514 65.92 227.594 64.08 225.274 62.4C221.354 59.6 215.354 56.8 207.594 56.8C190.314 56.8 177.194 70 177.194 86C177.194 102 190.314 115.2 207.594 115.2C215.594 115.2 221.514 112.4 225.594 109.6C227.914 107.92 229.914 106.08 231.594 104L223.594 96ZM268 102.8C274.4 92.88 292 90.32 292 74.4C292 64.48 284.4 56.8 272.4 56.8C264.56 56.8 259.6 60.16 256.56 63.44C254.8 65.36 253.44 67.52 252.4 70L262 74.8C262.56 73.52 263.36 72.4 264.24 71.44C265.76 69.76 268.16 68 271.6 68C276.4 68 279.6 71.12 279.6 75.2C279.6 87.6 252.4 87.6 252.4 114H292V102.8H268ZM324.016 104C318.016 104 312.016 98 312.016 86C312.016 74 318.016 68 324.016 68C330.016 68 336.016 74 336.016 86C336.016 98 330.016 104 324.016 104ZM324.016 115.2C336.816 115.2 348.016 104 348.016 86C348.016 68 336.816 56.8 324.016 56.8C311.216 56.8 300.016 68 300.016 86C300.016 104 311.216 115.2 324.016 115.2ZM370.031 102.8C376.431 92.88 394.031 90.32 394.031 74.4C394.031 64.48 386.431 56.8 374.431 56.8C366.591 56.8 361.631 60.16 358.591 63.44C356.831 65.36 355.471 67.52 354.431 70L364.031 74.8C364.591 73.52 365.391 72.4 366.271 71.44C367.791 69.76 370.191 68 373.631 68C378.431 68 381.631 71.12 381.631 75.2C381.631 87.6 354.431 87.6 354.431 114H394.031V102.8H370.031ZM410.047 114H422.047V58H412.047C411.407 59.2 410.607 60.32 409.567 61.36C407.727 63.2 404.927 65.04 400.447 65.6V73.2H410.047V114Z" fill="url(#paint0_linear)"/>
<path d="M66.6 160.92L68.592 155.4H68.688L70.68 160.92H66.6ZM60.12 168H63.96L65.4 164.16H71.88L73.32 168H77.16L70.68 151.2H66.6L60.12 168ZM78.8334 168H82.0734V156.24H78.8334V168ZM78.5934 152.88C78.5934 153.84 79.4094 154.68 80.4414 154.68C81.4734 154.68 82.3134 153.84 82.3134 152.88C82.3134 151.92 81.4974 151.08 80.4654 151.08C79.4334 151.08 78.5934 151.92 78.5934 152.88ZM85.185 168H88.425V162.48C88.425 160.56 89.625 159.36 91.185 159.36C91.545 159.36 91.809 159.408 92.001 159.432L92.265 159.48V156H92.025C90.873 156 90.009 156.48 89.433 156.96C89.097 157.248 88.809 157.56 88.545 157.92H88.425V156.24H85.185V168ZM94.4222 168H97.6622V151.2H94.4222V168ZM107.512 168H110.752V160.68C110.752 158.064 108.712 156 105.712 156C104.152 156 102.976 156.576 102.136 157.152C101.656 157.488 101.248 157.872 100.912 158.28L102.832 160.2C103.024 159.96 103.264 159.744 103.528 159.552C103.984 159.192 104.632 158.88 105.472 158.88C106.696 158.88 107.392 159.6 107.512 160.44L103.792 161.112C101.608 161.496 100.312 162.96 100.312 164.88C100.312 166.8 101.752 168.24 103.912 168.24C105.04 168.24 105.928 167.856 106.504 167.4C106.84 167.16 107.128 166.872 107.392 166.56H107.512V168ZM107.512 162.96C107.512 164.52 106.432 165.6 104.992 165.6C104.032 165.6 103.552 165.144 103.552 164.4C103.552 163.8 104.032 163.368 104.872 163.2L107.512 162.72V162.96ZM113.873 168H117.113V161.76C117.113 160.2 118.193 159.12 119.633 159.12C120.977 159.12 121.793 159.96 121.793 161.4V168H125.033V160.92C125.033 157.92 123.113 156 120.713 156C119.561 156 118.697 156.48 118.121 156.96C117.785 157.248 117.497 157.56 117.233 157.92H117.113V156.24H113.873V168ZM133.426 164.76C131.866 164.76 130.666 163.584 130.666 161.88C130.666 160.176 131.866 159 133.426 159C134.986 159 136.186 160.176 136.186 161.88C136.186 163.584 134.986 164.76 133.426 164.76ZM127.906 170.64C128.242 171.096 128.674 171.48 129.178 171.84C130.042 172.44 131.314 173.04 133.066 173.04C136.786 173.04 139.426 170.4 139.426 166.8V156.24H136.186V157.92H136.066C135.826 157.56 135.538 157.248 135.202 156.96C134.626 156.48 133.714 156 132.466 156C129.85 156 127.426 158.4 127.426 161.88C127.426 165.36 129.85 167.76 132.466 167.76C133.714 167.76 134.626 167.28 135.202 166.8C135.538 166.512 135.826 166.2 136.066 165.84H136.186V166.8C136.186 168.72 134.866 170.04 133.066 170.04C132.106 170.04 131.338 169.68 130.786 169.32C130.474 169.104 130.186 168.864 129.946 168.6L127.906 170.64ZM147.817 164.76C146.257 164.76 145.057 163.584 145.057 161.88C145.057 160.176 146.257 159 147.817 159C149.377 159 150.577 160.176 150.577 161.88C150.577 163.584 149.377 164.76 147.817 164.76ZM142.297 170.64C142.633 171.096 143.065 171.48 143.569 171.84C144.433 172.44 145.705 173.04 147.457 173.04C151.177 173.04 153.817 170.4 153.817 166.8V156.24H150.577V157.92H150.457C150.217 157.56 149.929 157.248 149.593 156.96C149.017 156.48 148.105 156 146.857 156C144.241 156 141.817 158.4 141.817 161.88C141.817 165.36 144.241 167.76 146.857 167.76C148.105 167.76 149.017 167.28 149.593 166.8C149.929 166.512 150.217 166.2 150.457 165.84H150.577V166.8C150.577 168.72 149.257 170.04 147.457 170.04C146.497 170.04 145.729 169.68 145.177 169.32C144.865 169.104 144.577 168.864 144.337 168.6L142.297 170.64ZM163.527 168H166.767V160.68C166.767 158.064 164.727 156 161.727 156C160.167 156 158.991 156.576 158.151 157.152C157.671 157.488 157.263 157.872 156.927 158.28L158.847 160.2C159.039 159.96 159.279 159.744 159.543 159.552C159.999 159.192 160.647 158.88 161.487 158.88C162.711 158.88 163.407 159.6 163.527 160.44L159.807 161.112C157.623 161.496 156.327 162.96 156.327 164.88C156.327 166.8 157.767 168.24 159.927 168.24C161.055 168.24 161.943 167.856 162.519 167.4C162.855 167.16 163.143 166.872 163.407 166.56H163.527V168ZM163.527 162.96C163.527 164.52 162.447 165.6 161.007 165.6C160.047 165.6 159.567 165.144 159.567 164.4C159.567 163.8 160.047 163.368 160.887 163.2L163.527 162.72V162.96ZM179.241 160.92L181.233 155.4H181.329L183.321 160.92H179.241ZM172.761 168H176.601L178.041 164.16H184.521L185.961 168H189.801L183.321 151.2H179.241L172.761 168ZM199.874 163.8C199.658 164.064 199.394 164.304 199.106 164.52C198.602 164.88 197.882 165.24 196.994 165.24C195.314 165.24 193.994 163.92 193.994 162.12C193.994 160.32 195.314 159 196.994 159C197.882 159 198.602 159.36 199.106 159.72C199.394 159.936 199.658 160.176 199.874 160.44L201.914 158.4C201.602 157.944 201.194 157.56 200.714 157.2C199.874 156.6 198.698 156 196.994 156C193.514 156 190.754 158.76 190.754 162.12C190.754 165.48 193.514 168.24 196.994 168.24C198.698 168.24 199.874 167.64 200.714 167.04C201.194 166.68 201.602 166.296 201.914 165.84L199.874 163.8ZM212.108 163.8C211.892 164.064 211.628 164.304 211.34 164.52C210.836 164.88 210.116 165.24 209.228 165.24C207.548 165.24 206.228 163.92 206.228 162.12C206.228 160.32 207.548 159 209.228 159C210.116 159 210.836 159.36 211.34 159.72C211.628 159.936 211.892 160.176 212.108 160.44L214.148 158.4C213.836 157.944 213.428 157.56 212.948 157.2C212.108 156.6 210.932 156 209.228 156C205.748 156 202.988 158.76 202.988 162.12C202.988 165.48 205.748 168.24 209.228 168.24C210.932 168.24 212.108 167.64 212.948 167.04C213.428 166.68 213.836 166.296 214.148 165.84L212.108 163.8ZM221.463 165.24C219.783 165.24 218.463 163.92 218.463 162.12C218.463 160.32 219.783 159 221.463 159C223.143 159 224.463 160.32 224.463 162.12C224.463 163.92 223.143 165.24 221.463 165.24ZM215.223 162.12C215.223 165.48 217.983 168.24 221.463 168.24C224.943 168.24 227.703 165.48 227.703 162.12C227.703 158.76 224.943 156 221.463 156C217.983 156 215.223 158.76 215.223 162.12ZM230.099 163.32C230.099 166.32 232.019 168.24 234.419 168.24C235.547 168.24 236.435 167.76 237.011 167.28C237.347 166.992 237.635 166.68 237.899 166.32H238.019V168H241.259V156.24H238.019V162.48C238.019 164.04 236.939 165.12 235.499 165.12C234.155 165.12 233.339 164.28 233.339 162.84V156.24H230.099V163.32ZM244.373 168H247.613V161.76C247.613 160.2 248.693 159.12 250.133 159.12C251.477 159.12 252.293 159.96 252.293 161.4V168H255.533V160.92C255.533 157.92 253.613 156 251.213 156C250.061 156 249.197 156.48 248.621 156.96C248.285 157.248 247.997 157.56 247.733 157.92H247.613V156.24H244.373V168ZM259.372 163.92C259.372 166.704 260.932 168.24 263.332 168.24C263.932 168.24 264.484 168.168 264.868 168.072C265.084 168 265.3 167.952 265.492 167.88V164.88C265.372 164.928 265.252 164.976 265.108 165C264.844 165.072 264.532 165.12 264.172 165.12C263.212 165.12 262.612 164.52 262.612 163.44V159.48H265.252V156.48H262.612V152.88H259.732V155.04C259.732 156 259.3 156.48 258.412 156.48H257.332V159.48H259.372V163.92ZM268.021 168H271.261V156.24H268.021V168ZM267.781 152.88C267.781 153.84 268.597 154.68 269.629 154.68C270.661 154.68 271.501 153.84 271.501 152.88C271.501 151.92 270.685 151.08 269.653 151.08C268.621 151.08 267.781 151.92 267.781 152.88ZM274.373 168H277.613V161.76C277.613 160.2 278.693 159.12 280.133 159.12C281.477 159.12 282.293 159.96 282.293 161.4V168H285.533V160.92C285.533 157.92 283.613 156 281.213 156C280.061 156 279.197 156.48 278.621 156.96C278.285 157.248 277.997 157.56 277.733 157.92H277.613V156.24H274.373V168ZM293.926 164.76C292.366 164.76 291.166 163.584 291.166 161.88C291.166 160.176 292.366 159 293.926 159C295.486 159 296.686 160.176 296.686 161.88C296.686 163.584 295.486 164.76 293.926 164.76ZM288.406 170.64C288.742 171.096 289.174 171.48 289.678 171.84C290.542 172.44 291.814 173.04 293.566 173.04C297.286 173.04 299.926 170.4 299.926 166.8V156.24H296.686V157.92H296.566C296.326 157.56 296.038 157.248 295.702 156.96C295.126 156.48 294.214 156 292.966 156C290.35 156 287.926 158.4 287.926 161.88C287.926 165.36 290.35 167.76 292.966 167.76C294.214 167.76 295.126 167.28 295.702 166.8C296.038 166.512 296.326 166.2 296.566 165.84H296.686V166.8C296.686 168.72 295.366 170.04 293.566 170.04C292.606 170.04 291.838 169.68 291.286 169.32C290.974 169.104 290.686 168.864 290.446 168.6L288.406 170.64ZM321.516 162.6C321.18 163.056 320.772 163.44 320.292 163.8C319.452 164.4 318.276 165 316.716 165C313.716 165 311.316 162.6 311.316 159.6C311.316 156.6 313.716 154.2 316.716 154.2C318.228 154.2 319.38 154.8 320.172 155.4C320.628 155.76 321.036 156.144 321.396 156.6L323.796 154.2C323.292 153.576 322.716 153.024 322.02 152.52C320.844 151.68 319.044 150.84 316.716 150.84C311.532 150.84 307.596 154.8 307.596 159.6C307.596 164.4 311.532 168.36 316.716 168.36C319.116 168.36 320.892 167.52 322.116 166.68C322.812 166.176 323.412 165.624 323.916 165L321.516 162.6ZM331.244 165.24C329.564 165.24 328.244 163.92 328.244 162.12C328.244 160.32 329.564 159 331.244 159C332.924 159 334.244 160.32 334.244 162.12C334.244 163.92 332.924 165.24 331.244 165.24ZM325.004 162.12C325.004 165.48 327.764 168.24 331.244 168.24C334.724 168.24 337.484 165.48 337.484 162.12C337.484 158.76 334.724 156 331.244 156C327.764 156 325.004 158.76 325.004 162.12ZM339.88 168H343.12V161.52C343.12 160.08 344.056 159.12 345.4 159.12C346.624 159.12 347.32 159.816 347.32 161.16V168H350.56V161.52C350.56 160.08 351.496 159.12 352.84 159.12C354.064 159.12 354.76 159.816 354.76 161.16V168H358V160.68C358 157.8 356.224 156 353.92 156C352.648 156 351.712 156.528 351.064 157.032C350.68 157.32 350.344 157.656 350.08 158.04H349.96C349.744 157.656 349.48 157.32 349.168 157.032C348.616 156.528 347.728 156 346.48 156C345.328 156 344.56 156.48 344.008 156.96C343.696 157.248 343.456 157.56 343.24 157.92H343.12V156.24H339.88V168ZM361.115 173.04H364.355V166.32H364.475C364.715 166.68 365.027 166.992 365.387 167.28C366.035 167.76 366.923 168.24 368.195 168.24C370.979 168.24 373.475 165.72 373.475 162.12C373.475 158.544 370.979 156 368.195 156C366.923 156 366.035 156.48 365.387 156.96C365.027 157.248 364.715 157.56 364.475 157.92H364.355V156.24H361.115V173.04ZM367.235 165.24C365.555 165.24 364.235 163.92 364.235 162.12C364.235 160.32 365.555 159 367.235 159C368.915 159 370.235 160.32 370.235 162.12C370.235 163.92 368.915 165.24 367.235 165.24ZM384.76 164.04C384.544 164.304 384.28 164.52 383.968 164.712C383.416 165.072 382.672 165.36 381.64 165.36C379.84 165.36 378.88 164.4 378.52 163.32H387.04L387.088 162.912C387.112 162.648 387.16 162.336 387.16 161.88C387.16 158.64 384.52 156 381.28 156C377.92 156 375.16 158.76 375.16 162.12C375.16 165.48 377.92 168.24 381.4 168.24C383.032 168.24 384.28 167.76 385.144 167.28C385.648 166.992 386.08 166.68 386.44 166.32L384.76 164.04ZM378.52 160.92C378.88 159.84 379.816 158.88 381.16 158.88C382.504 158.88 383.44 159.84 383.8 160.92H378.52ZM390.528 163.92C390.528 166.704 392.088 168.24 394.488 168.24C395.088 168.24 395.64 168.168 396.024 168.072C396.24 168 396.456 167.952 396.648 167.88V164.88C396.528 164.928 396.408 164.976 396.264 165C396 165.072 395.688 165.12 395.328 165.12C394.368 165.12 393.768 164.52 393.768 163.44V159.48H396.408V156.48H393.768V152.88H390.888V155.04C390.888 156 390.456 156.48 389.568 156.48H388.488V159.48H390.528V163.92ZM399.177 168H402.417V156.24H399.177V168ZM398.937 152.88C398.937 153.84 399.753 154.68 400.785 154.68C401.817 154.68 402.657 153.84 402.657 152.88C402.657 151.92 401.841 151.08 400.809 151.08C399.777 151.08 398.937 151.92 398.937 152.88ZM406.489 163.92C406.489 166.704 408.049 168.24 410.449 168.24C411.049 168.24 411.601 168.168 411.985 168.072C412.201 168 412.417 167.952 412.609 167.88V164.88C412.489 164.928 412.369 164.976 412.225 165C411.961 165.072 411.649 165.12 411.289 165.12C410.329 165.12 409.729 164.52 409.729 163.44V159.48H412.369V156.48H409.729V152.88H406.849V155.04C406.849 156 406.417 156.48 405.529 156.48H404.449V159.48H406.489V163.92ZM415.138 168H418.378V156.24H415.138V168ZM414.898 152.88C414.898 153.84 415.714 154.68 416.746 154.68C417.778 154.68 418.618 153.84 418.618 152.88C418.618 151.92 417.802 151.08 416.77 151.08C415.738 151.08 414.898 151.92 414.898 152.88ZM427.01 165.24C425.33 165.24 424.01 163.92 424.01 162.12C424.01 160.32 425.33 159 427.01 159C428.69 159 430.01 160.32 430.01 162.12C430.01 163.92 428.69 165.24 427.01 165.24ZM420.77 162.12C420.77 165.48 423.53 168.24 427.01 168.24C430.49 168.24 433.25 165.48 433.25 162.12C433.25 158.76 430.49 156 427.01 156C423.53 156 420.77 158.76 420.77 162.12ZM435.646 168H438.886V161.76C438.886 160.2 439.966 159.12 441.406 159.12C442.75 159.12 443.566 159.96 443.566 161.4V168H446.806V160.92C446.806 157.92 444.886 156 442.486 156C441.334 156 440.47 156.48 439.894 156.96C439.558 157.248 439.27 157.56 439.006 157.92H438.886V156.24H435.646V168Z" fill="#FDA305"/>
</g>
<defs>
<filter id="filter0_d" x="0.119995" y="0.799995" width="506.686" height="236.24" filterUnits="userSpaceOnUse" color-interpolation-filters="sRGB">
<feFlood flood-opacity="0" result="BackgroundImageFix"/>
<feColorMatrix in="SourceAlpha" type="matrix" values="0 0 0 0 0 0 0 0 0 0 0 0 0 0 0 0 0 0 127 0"/>
<feOffset dy="4"/>
<feGaussianBlur stdDeviation="30"/>
<feColorMatrix type="matrix" values="0 0 0 0 0.992157 0 0 0 0 0.639216 0 0 0 0 0.0196078 0 0 0 0.5 0"/>
<feBlend mode="normal" in2="BackgroundImageFix" result="effect1_dropShadow"/>
<feBlend mode="normal" in="SourceGraphic" in2="effect1_dropShadow" result="shape"/>
</filter>
<linearGradient id="paint0_linear" x1="60" y1="37" x2="106.674" y2="216.89" gradientUnits="userSpaceOnUse">
<stop stop-color="#F25500"/>
<stop offset="1" stop-color="#FDA305"/>
</linearGradient>
</defs>
</svg>
