<svg width="363" height="95" viewBox="0 0 363 95" fill="none" xmlns="http://www.w3.org/2000/svg">
<path d="M144.646 47H151.846V20.12H161.446V13.4H135.046V20.12H144.646V47ZM172.739 32.84L176.723 21.8H176.915L180.899 32.84H172.739ZM159.779 47H167.459L170.339 39.32H183.299L186.179 47H193.859L180.899 13.4H172.739L159.779 47ZM223.148 36.2C222.476 37.112 221.66 37.88 220.7 38.6C219.02 39.8 216.668 41 213.548 41C207.548 41 202.748 36.2 202.748 30.2C202.748 24.2 207.548 19.4 213.548 19.4C216.572 19.4 218.876 20.6 220.46 21.8C221.372 22.52 222.188 23.288 222.908 24.2L227.708 19.4C226.7 18.152 225.548 17.048 224.156 16.04C221.804 14.36 218.204 12.68 213.548 12.68C203.18 12.68 195.308 20.6 195.308 30.2C195.308 39.8 203.18 47.72 213.548 47.72C218.348 47.72 221.9 46.04 224.348 44.36C225.74 43.352 226.94 42.248 227.948 41L223.148 36.2Z" fill="url(#paint0_linear)"/>
<path d="M6.09984 89H7.89984V73.88H13.1798V72.2H0.819844V73.88H6.09984V89ZM22.7827 85.76C22.5187 86.12 22.1827 86.432 21.8227 86.72C21.1747 87.2 20.2867 87.68 19.0627 87.68C16.8787 87.68 15.1027 85.88 14.9827 83.84L24.3427 83.864L24.3907 83.624C24.4147 83.456 24.4627 83.264 24.4627 83C24.4627 79.64 22.0867 77.24 18.9427 77.24C15.9427 77.24 13.3027 79.88 13.3027 83.24C13.3027 86.6 15.9187 89.24 19.0627 89.24C20.6227 89.24 21.7987 88.64 22.6387 88.04C23.1187 87.68 23.5267 87.296 23.8627 86.84L22.7827 85.76ZM14.9827 82.4C15.2467 80.48 16.8787 78.8 18.9427 78.8C20.9827 78.8 22.5187 80.36 22.7827 82.4H14.9827ZM36.0952 85.76C35.8312 86.12 35.4952 86.432 35.1352 86.72C34.4872 87.2 33.5992 87.68 32.3752 87.68C30.1912 87.68 28.4152 85.88 28.2952 83.84L37.6552 83.864L37.7032 83.624C37.7272 83.456 37.7752 83.264 37.7752 83C37.7752 79.64 35.3992 77.24 32.2552 77.24C29.2552 77.24 26.6152 79.88 26.6152 83.24C26.6152 86.6 29.2312 89.24 32.3752 89.24C33.9352 89.24 35.1112 88.64 35.9512 88.04C36.4312 87.68 36.8392 87.296 37.1752 86.84L36.0952 85.76ZM28.2952 82.4C28.5592 80.48 30.1912 78.8 32.2552 78.8C34.2952 78.8 35.8312 80.36 36.0952 82.4H28.2952ZM40.7677 89H42.4477V82.64C42.4477 80.336 44.0077 78.8 46.0477 78.8C47.8717 78.8 49.1677 80.12 49.1677 82.16V89H50.8477V82.16C50.8477 79.16 48.9277 77.24 46.1677 77.24C44.8957 77.24 44.0077 77.72 43.3597 78.2C42.9997 78.488 42.6877 78.8 42.4477 79.16V77.48H40.7677V89ZM61.6495 89H63.3295V81.68C63.3295 79.16 61.4095 77.24 58.7695 77.24C57.3535 77.24 56.3215 77.768 55.5775 78.32C55.1455 78.632 54.7615 78.992 54.4495 79.4L55.5295 80.48C55.7935 80.168 56.0815 79.904 56.3935 79.64C56.9455 79.232 57.7375 78.8 58.7695 78.8C60.4735 78.8 61.6495 79.976 61.6495 81.68L57.2095 82.4C55.0255 82.76 53.8495 83.96 53.8495 85.88C53.8495 87.56 55.5295 89.24 57.9295 89.24C59.1775 89.24 60.0895 88.808 60.7375 88.352C61.0975 88.088 61.4095 87.776 61.6495 87.44V89ZM61.6495 83.84C61.6495 86.144 60.1135 87.68 57.9295 87.68C56.3695 87.68 55.5295 86.84 55.5295 85.88C55.5295 84.8 56.2495 84.104 57.6895 83.84L61.6495 83.12V83.84ZM66.7983 91.64C67.1103 92.096 67.5183 92.48 67.9743 92.84C68.7663 93.44 69.9663 94.04 71.5983 94.04C74.7183 94.04 77.2383 91.52 77.2383 88.28V77.48H75.5583V79.04C75.3423 78.728 75.0303 78.416 74.6703 78.152C74.0223 77.696 73.0863 77.24 71.7183 77.24C68.7183 77.24 66.3183 79.76 66.3183 83C66.3183 86.24 68.7183 88.76 71.7183 88.76C73.0863 88.76 74.0223 88.328 74.6703 87.872C75.0303 87.608 75.3423 87.296 75.5583 86.96V88.28C75.5583 90.68 73.7823 92.48 71.5983 92.48C70.3743 92.48 69.4863 92 68.8383 91.52C68.4783 91.232 68.1423 90.92 67.8783 90.56L66.7983 91.64ZM71.7183 87.2C69.7023 87.2 67.9983 85.4 67.9983 83C67.9983 80.6 69.7023 78.8 71.7183 78.8C73.8783 78.8 75.5583 80.6 75.5583 83C75.5583 85.4 73.8783 87.2 71.7183 87.2ZM89.7202 85.76C89.4562 86.12 89.1202 86.432 88.7602 86.72C88.1122 87.2 87.2242 87.68 86.0002 87.68C83.8162 87.68 82.0402 85.88 81.9202 83.84L91.2802 83.864L91.3282 83.624C91.3522 83.456 91.4002 83.264 91.4002 83C91.4002 79.64 89.0242 77.24 85.8802 77.24C82.8802 77.24 80.2402 79.88 80.2402 83.24C80.2402 86.6 82.8562 89.24 86.0002 89.24C87.5602 89.24 88.7362 88.64 89.5762 88.04C90.0562 87.68 90.4642 87.296 90.8002 86.84L89.7202 85.76ZM81.9202 82.4C82.1842 80.48 83.8162 78.8 85.8802 78.8C87.9202 78.8 89.4562 80.36 89.7202 82.4H81.9202ZM97.2652 89H99.1852L101.105 84.32H109.025L110.945 89H112.865L105.905 72.2H104.225L97.2652 89ZM101.825 82.64L105.065 74.72L108.305 82.64H101.825ZM123.795 85.76C123.531 86.12 123.219 86.432 122.859 86.72C122.211 87.2 121.323 87.68 120.195 87.68C118.035 87.68 116.115 85.76 116.115 83.24C116.115 80.72 118.035 78.8 120.195 78.8C121.323 78.8 122.211 79.28 122.787 79.76C123.123 80.048 123.411 80.36 123.675 80.72L124.875 79.52C124.515 79.112 124.107 78.728 123.651 78.392C122.859 77.816 121.707 77.24 120.195 77.24C117.051 77.24 114.435 79.88 114.435 83.24C114.435 86.6 117.051 89.24 120.195 89.24C121.707 89.24 122.883 88.64 123.723 88.04C124.203 87.68 124.635 87.296 124.995 86.84L123.795 85.76ZM135.913 85.76C135.649 86.12 135.337 86.432 134.977 86.72C134.329 87.2 133.441 87.68 132.313 87.68C130.153 87.68 128.233 85.76 128.233 83.24C128.233 80.72 130.153 78.8 132.313 78.8C133.441 78.8 134.329 79.28 134.905 79.76C135.241 80.048 135.529 80.36 135.793 80.72L136.993 79.52C136.633 79.112 136.225 78.728 135.769 78.392C134.977 77.816 133.825 77.24 132.313 77.24C129.169 77.24 126.553 79.88 126.553 83.24C126.553 86.6 129.169 89.24 132.313 89.24C133.825 89.24 135.001 88.64 135.841 88.04C136.321 87.68 136.753 87.296 137.113 86.84L135.913 85.76ZM144.55 89.24C147.79 89.24 150.43 86.6 150.43 83.24C150.43 79.88 147.79 77.24 144.55 77.24C141.31 77.24 138.67 79.88 138.67 83.24C138.67 86.6 141.31 89.24 144.55 89.24ZM144.55 87.68C142.27 87.68 140.35 85.736 140.35 83.24C140.35 80.72 142.27 78.8 144.55 78.8C146.83 78.8 148.75 80.72 148.75 83.24C148.75 85.76 146.83 87.68 144.55 87.68ZM153.432 84.2C153.432 87.2 155.472 89.24 158.112 89.24C159.36 89.24 160.272 88.808 160.92 88.352C161.28 88.088 161.592 87.776 161.832 87.44V89H163.512V77.48H161.832V83.84C161.832 86.144 160.272 87.68 158.352 87.68C156.552 87.68 155.112 86.24 155.112 84.2V77.48H153.432V84.2ZM167.471 89H169.151V82.64C169.151 80.336 170.711 78.8 172.751 78.8C174.575 78.8 175.871 80.12 175.871 82.16V89H177.551V82.16C177.551 79.16 175.631 77.24 172.871 77.24C171.599 77.24 170.711 77.72 170.063 78.2C169.703 78.488 169.391 78.8 169.151 79.16V77.48H167.471V89ZM182.118 85.88C182.118 88.064 183.294 89.24 185.286 89.24C185.742 89.24 186.15 89.168 186.438 89.072C186.606 89 186.774 88.952 186.918 88.88V87.32C186.798 87.392 186.63 87.44 186.462 87.512C186.174 87.608 185.766 87.68 185.358 87.68C184.398 87.68 183.798 87.104 183.798 85.88V79.04H186.318V77.48H183.798V73.64H182.238V76.28C182.238 77.072 181.926 77.48 181.278 77.48H179.958V79.04H182.118V85.88ZM189.567 73.64C189.567 74.24 190.047 74.72 190.647 74.72C191.247 74.72 191.727 74.24 191.727 73.64C191.727 73.04 191.247 72.56 190.647 72.56C190.047 72.56 189.567 73.04 189.567 73.64ZM189.807 89H191.487V77.48H189.807V89ZM195.338 89H197.018V82.64C197.018 80.336 198.578 78.8 200.618 78.8C202.442 78.8 203.738 80.12 203.738 82.16V89H205.418V82.16C205.418 79.16 203.498 77.24 200.738 77.24C199.466 77.24 198.578 77.72 197.93 78.2C197.57 78.488 197.258 78.8 197.018 79.16V77.48H195.338V89ZM208.9 91.64C209.212 92.096 209.62 92.48 210.076 92.84C210.868 93.44 212.068 94.04 213.7 94.04C216.82 94.04 219.34 91.52 219.34 88.28V77.48H217.66V79.04C217.444 78.728 217.132 78.416 216.772 78.152C216.124 77.696 215.188 77.24 213.82 77.24C210.82 77.24 208.42 79.76 208.42 83C208.42 86.24 210.82 88.76 213.82 88.76C215.188 88.76 216.124 88.328 216.772 87.872C217.132 87.608 217.444 87.296 217.66 86.96V88.28C217.66 90.68 215.884 92.48 213.7 92.48C212.476 92.48 211.588 92 210.94 91.52C210.58 91.232 210.244 90.92 209.98 90.56L208.9 91.64ZM213.82 87.2C211.804 87.2 210.1 85.4 210.1 83C210.1 80.6 211.804 78.8 213.82 78.8C215.98 78.8 217.66 80.6 217.66 83C217.66 85.4 215.98 87.2 213.82 87.2ZM242.141 84.68C241.733 85.232 241.253 85.712 240.701 86.12C239.741 86.864 238.301 87.56 236.381 87.56C232.541 87.56 229.541 84.56 229.541 80.6C229.541 76.64 232.541 73.64 236.381 73.64C238.301 73.64 239.693 74.336 240.629 75.08C241.181 75.488 241.637 75.968 242.021 76.52L243.221 75.44C242.741 74.792 242.165 74.216 241.517 73.712C240.365 72.848 238.685 71.96 236.381 71.96C231.581 71.96 227.741 75.8 227.741 80.6C227.741 85.4 231.581 89.24 236.381 89.24C238.685 89.24 240.389 88.376 241.565 87.512C242.261 87.008 242.837 86.408 243.341 85.76L242.141 84.68ZM251.026 89.24C254.266 89.24 256.906 86.6 256.906 83.24C256.906 79.88 254.266 77.24 251.026 77.24C247.786 77.24 245.146 79.88 245.146 83.24C245.146 86.6 247.786 89.24 251.026 89.24ZM251.026 87.68C248.746 87.68 246.826 85.736 246.826 83.24C246.826 80.72 248.746 78.8 251.026 78.8C253.306 78.8 255.226 80.72 255.226 83.24C255.226 85.76 253.306 87.68 251.026 87.68ZM259.908 89H261.588V82.64C261.588 80.24 263.052 78.8 264.708 78.8C266.412 78.8 267.588 79.976 267.588 82.16V89H269.268V82.64C269.268 80.24 270.732 78.8 272.388 78.8C274.092 78.8 275.268 79.952 275.268 82.16V89H276.948V82.16C276.948 78.944 275.028 77.24 272.508 77.24C271.068 77.24 270.084 77.768 269.436 78.272C269.076 78.56 268.764 78.896 268.548 79.28C268.332 78.896 268.068 78.56 267.732 78.272C267.156 77.768 266.196 77.24 264.828 77.24C263.676 77.24 262.908 77.672 262.356 78.08C262.044 78.344 261.804 78.608 261.588 78.92V77.48H259.908V89ZM280.791 94.04H282.471V87.32C282.735 87.68 283.047 87.992 283.455 88.28C284.103 88.76 285.087 89.24 286.431 89.24C289.551 89.24 292.071 86.72 292.071 83.24C292.071 79.76 289.551 77.24 286.431 77.24C285.087 77.24 284.103 77.72 283.455 78.2C283.047 78.488 282.735 78.8 282.471 79.16V77.48H280.791V94.04ZM286.431 87.68C284.415 87.68 282.471 85.76 282.471 83.24C282.471 80.72 284.415 78.8 286.431 78.8C288.615 78.8 290.391 80.624 290.391 83.24C290.391 85.856 288.615 87.68 286.431 87.68ZM303.705 85.76C303.441 86.12 303.105 86.432 302.745 86.72C302.097 87.2 301.209 87.68 299.985 87.68C297.801 87.68 296.025 85.88 295.905 83.84L305.265 83.864L305.313 83.624C305.337 83.456 305.385 83.264 305.385 83C305.385 79.64 303.009 77.24 299.865 77.24C296.865 77.24 294.225 79.88 294.225 83.24C294.225 86.6 296.841 89.24 299.985 89.24C301.545 89.24 302.721 88.64 303.561 88.04C304.041 87.68 304.449 87.296 304.785 86.84L303.705 85.76ZM295.905 82.4C296.169 80.48 297.801 78.8 299.865 78.8C301.905 78.8 303.441 80.36 303.705 82.4H295.905ZM309.337 85.88C309.337 88.064 310.513 89.24 312.505 89.24C312.961 89.24 313.369 89.168 313.657 89.072C313.825 89 313.993 88.952 314.137 88.88V87.32C314.017 87.392 313.849 87.44 313.681 87.512C313.393 87.608 312.985 87.68 312.577 87.68C311.617 87.68 311.017 87.104 311.017 85.88V79.04H313.537V77.48H311.017V73.64H309.457V76.28C309.457 77.072 309.145 77.48 308.497 77.48H307.177V79.04H309.337V85.88ZM316.785 73.64C316.785 74.24 317.265 74.72 317.865 74.72C318.465 74.72 318.945 74.24 318.945 73.64C318.945 73.04 318.465 72.56 317.865 72.56C317.265 72.56 316.785 73.04 316.785 73.64ZM317.025 89H318.705V77.48H317.025V89ZM323.517 85.88C323.517 88.064 324.693 89.24 326.685 89.24C327.141 89.24 327.549 89.168 327.837 89.072C328.005 89 328.173 88.952 328.317 88.88V87.32C328.197 87.392 328.029 87.44 327.861 87.512C327.573 87.608 327.165 87.68 326.757 87.68C325.797 87.68 325.197 87.104 325.197 85.88V79.04H327.717V77.48H325.197V73.64H323.637V76.28C323.637 77.072 323.325 77.48 322.677 77.48H321.357V79.04H323.517V85.88ZM330.965 73.64C330.965 74.24 331.445 74.72 332.045 74.72C332.645 74.72 333.125 74.24 333.125 73.64C333.125 73.04 332.645 72.56 332.045 72.56C331.445 72.56 330.965 73.04 330.965 73.64ZM331.205 89H332.885V77.48H331.205V89ZM341.776 89.24C345.016 89.24 347.656 86.6 347.656 83.24C347.656 79.88 345.016 77.24 341.776 77.24C338.536 77.24 335.896 79.88 335.896 83.24C335.896 86.6 338.536 89.24 341.776 89.24ZM341.776 87.68C339.496 87.68 337.576 85.736 337.576 83.24C337.576 80.72 339.496 78.8 341.776 78.8C344.056 78.8 345.976 80.72 345.976 83.24C345.976 85.76 344.056 87.68 341.776 87.68ZM350.658 89H352.338V82.64C352.338 80.336 353.898 78.8 355.938 78.8C357.762 78.8 359.058 80.12 359.058 82.16V89H360.738V82.16C360.738 79.16 358.818 77.24 356.058 77.24C354.786 77.24 353.898 77.72 353.25 78.2C352.89 78.488 352.578 78.8 352.338 79.16V77.48H350.658V89Z" fill="#FDA305"/>
<defs>
<linearGradient id="paint0_linear" x1="134" y1="0" x2="185.591" y2="84.5024" gradientUnits="userSpaceOnUse">
<stop stop-color="#F25500"/>
<stop offset="1" stop-color="#FDA305"/>
</linearGradient>
</defs>
</svg>
