<svg width="425" height="95" viewBox="0 0 425 95" fill="none" xmlns="http://www.w3.org/2000/svg">
<path d="M143.353 33.08C143.353 41.72 149.353 47.72 157.993 47.72C166.633 47.72 172.633 41.72 172.633 33.08V13.4H165.433V33.08C165.433 37.88 162.361 41 157.993 41C153.625 41 150.553 37.88 150.553 33.08V13.4H143.353V33.08ZM181.047 47H188.247V26.12L204.567 47H211.047V13.4H203.847V34.28L187.527 13.4H181.047V47ZM228.552 32.84L232.536 21.8H232.728L236.712 32.84H228.552ZM215.592 47H223.272L226.152 39.32H239.112L241.992 47H249.672L236.712 13.4H228.552L215.592 47ZM278.961 36.2C278.289 37.112 277.473 37.88 276.513 38.6C274.833 39.8 272.481 41 269.361 41C263.361 41 258.561 36.2 258.561 30.2C258.561 24.2 263.361 19.4 269.361 19.4C272.385 19.4 274.689 20.6 276.273 21.8C277.185 22.52 278.001 23.288 278.721 24.2L283.521 19.4C282.513 18.152 281.361 17.048 279.969 16.04C277.617 14.36 274.017 12.68 269.361 12.68C258.993 12.68 251.121 20.6 251.121 30.2C251.121 39.8 258.993 47.72 269.361 47.72C274.161 47.72 277.713 46.04 280.161 44.36C281.553 43.352 282.753 42.248 283.761 41L278.961 36.2Z" fill="url(#paint0_linear)"/>
<path d="M2.57688 82.4C2.57688 86.24 5.57688 89.24 9.41688 89.24C13.2569 89.24 16.2569 86.24 16.2569 82.4V72.2H14.4569V82.4C14.4569 85.4 12.2969 87.56 9.41688 87.56C6.53688 87.56 4.37688 85.4 4.37688 82.4V72.2H2.57688V82.4ZM20.4513 89H22.1313V82.64C22.1313 80.336 23.6913 78.8 25.7313 78.8C27.5553 78.8 28.8513 80.12 28.8513 82.16V89H30.5312V82.16C30.5312 79.16 28.6113 77.24 25.8513 77.24C24.5793 77.24 23.6913 77.72 23.0433 78.2C22.6833 78.488 22.3713 78.8 22.1313 79.16V77.48H20.4513V89ZM41.3331 89H43.0131V81.68C43.0131 79.16 41.0931 77.24 38.4531 77.24C37.0371 77.24 36.0051 77.768 35.2611 78.32C34.8291 78.632 34.4451 78.992 34.1331 79.4L35.2131 80.48C35.4771 80.168 35.7651 79.904 36.0771 79.64C36.6291 79.232 37.4211 78.8 38.4531 78.8C40.1571 78.8 41.3331 79.976 41.3331 81.68L36.8931 82.4C34.7091 82.76 33.5331 83.96 33.5331 85.88C33.5331 87.56 35.2131 89.24 37.6131 89.24C38.8611 89.24 39.7731 88.808 40.4211 88.352C40.7811 88.088 41.0931 87.776 41.3331 87.44V89ZM41.3331 83.84C41.3331 86.144 39.7971 87.68 37.6131 87.68C36.0531 87.68 35.2131 86.84 35.2131 85.88C35.2131 84.8 35.9331 84.104 37.3731 83.84L41.3331 83.12V83.84ZM46.6019 73.64C46.6019 74.24 47.0819 74.72 47.6819 74.72C48.2819 74.72 48.7619 74.24 48.7619 73.64C48.7619 73.04 48.2819 72.56 47.6819 72.56C47.0819 72.56 46.6019 73.04 46.6019 73.64ZM46.8419 89H48.5219V77.48H46.8419V89ZM52.3731 89H54.0531V82.64C54.0531 80.36 55.7331 78.92 57.6531 78.92H58.3731V77.24H57.8931C56.5491 77.24 55.6371 77.696 54.9891 78.152C54.6291 78.416 54.3171 78.728 54.0531 79.04V77.48H52.3731V89ZM65.8169 89H67.6169V75.44L77.9369 89H79.4969V72.2H77.6969V85.76L67.3769 72.2H65.8169V89ZM90.9034 89H92.5834V81.68C92.5834 79.16 90.6634 77.24 88.0234 77.24C86.6074 77.24 85.5754 77.768 84.8314 78.32C84.3994 78.632 84.0154 78.992 83.7034 79.4L84.7834 80.48C85.0474 80.168 85.3354 79.904 85.6474 79.64C86.1994 79.232 86.9914 78.8 88.0234 78.8C89.7274 78.8 90.9034 79.976 90.9034 81.68L86.4634 82.4C84.2794 82.76 83.1034 83.96 83.1034 85.88C83.1034 87.56 84.7834 89.24 87.1834 89.24C88.4314 89.24 89.3434 88.808 89.9914 88.352C90.3514 88.088 90.6634 87.776 90.9034 87.44V89ZM90.9034 83.84C90.9034 86.144 89.3674 87.68 87.1834 87.68C85.6234 87.68 84.7834 86.84 84.7834 85.88C84.7834 84.8 85.5034 84.104 86.9434 83.84L90.9034 83.12V83.84ZM97.1378 85.88C97.1378 88.064 98.3138 89.24 100.306 89.24C100.762 89.24 101.17 89.168 101.458 89.072C101.626 89 101.794 88.952 101.938 88.88V87.32C101.818 87.392 101.65 87.44 101.482 87.512C101.194 87.608 100.786 87.68 100.378 87.68C99.4178 87.68 98.8178 87.104 98.8178 85.88V79.04H101.338V77.48H98.8178V73.64H97.2578V76.28C97.2578 77.072 96.9458 77.48 96.2978 77.48H94.9778V79.04H97.1378V85.88ZM104.586 73.64C104.586 74.24 105.066 74.72 105.666 74.72C106.266 74.72 106.746 74.24 106.746 73.64C106.746 73.04 106.266 72.56 105.666 72.56C105.066 72.56 104.586 73.04 104.586 73.64ZM104.826 89H106.506V77.48H104.826V89ZM115.398 89.24C118.638 89.24 121.278 86.6 121.278 83.24C121.278 79.88 118.638 77.24 115.398 77.24C112.158 77.24 109.518 79.88 109.518 83.24C109.518 86.6 112.158 89.24 115.398 89.24ZM115.398 87.68C113.118 87.68 111.198 85.736 111.198 83.24C111.198 80.72 113.118 78.8 115.398 78.8C117.678 78.8 119.598 80.72 119.598 83.24C119.598 85.76 117.678 87.68 115.398 87.68ZM124.279 89H125.959V82.64C125.959 80.336 127.519 78.8 129.559 78.8C131.383 78.8 132.679 80.12 132.679 82.16V89H134.359V82.16C134.359 79.16 132.439 77.24 129.679 77.24C128.407 77.24 127.519 77.72 126.871 78.2C126.511 78.488 126.199 78.8 125.959 79.16V77.48H124.279V89ZM145.161 89H146.841V81.68C146.841 79.16 144.921 77.24 142.281 77.24C140.865 77.24 139.833 77.768 139.089 78.32C138.657 78.632 138.273 78.992 137.961 79.4L139.041 80.48C139.305 80.168 139.593 79.904 139.905 79.64C140.457 79.232 141.249 78.8 142.281 78.8C143.985 78.8 145.161 79.976 145.161 81.68L140.721 82.4C138.537 82.76 137.361 83.96 137.361 85.88C137.361 87.56 139.041 89.24 141.441 89.24C142.689 89.24 143.601 88.808 144.249 88.352C144.609 88.088 144.921 87.776 145.161 87.44V89ZM145.161 83.84C145.161 86.144 143.625 87.68 141.441 87.68C139.881 87.68 139.041 86.84 139.041 85.88C139.041 84.8 139.761 84.104 141.201 83.84L145.161 83.12V83.84ZM150.79 89H152.47V72.2H150.79V89ZM159.308 89H161.228L163.148 84.32H171.068L172.988 89H174.908L167.948 72.2H166.268L159.308 89ZM163.868 82.64L167.108 74.72L170.348 82.64H163.868ZM185.838 85.76C185.574 86.12 185.262 86.432 184.902 86.72C184.254 87.2 183.366 87.68 182.238 87.68C180.078 87.68 178.158 85.76 178.158 83.24C178.158 80.72 180.078 78.8 182.238 78.8C183.366 78.8 184.254 79.28 184.83 79.76C185.166 80.048 185.454 80.36 185.718 80.72L186.918 79.52C186.558 79.112 186.15 78.728 185.694 78.392C184.902 77.816 183.75 77.24 182.238 77.24C179.094 77.24 176.478 79.88 176.478 83.24C176.478 86.6 179.094 89.24 182.238 89.24C183.75 89.24 184.926 88.64 185.766 88.04C186.246 87.68 186.678 87.296 187.038 86.84L185.838 85.76ZM197.956 85.76C197.692 86.12 197.38 86.432 197.02 86.72C196.372 87.2 195.484 87.68 194.356 87.68C192.196 87.68 190.276 85.76 190.276 83.24C190.276 80.72 192.196 78.8 194.356 78.8C195.484 78.8 196.372 79.28 196.948 79.76C197.284 80.048 197.572 80.36 197.836 80.72L199.036 79.52C198.676 79.112 198.268 78.728 197.812 78.392C197.02 77.816 195.868 77.24 194.356 77.24C191.212 77.24 188.596 79.88 188.596 83.24C188.596 86.6 191.212 89.24 194.356 89.24C195.868 89.24 197.044 88.64 197.884 88.04C198.364 87.68 198.796 87.296 199.156 86.84L197.956 85.76ZM206.593 89.24C209.833 89.24 212.473 86.6 212.473 83.24C212.473 79.88 209.833 77.24 206.593 77.24C203.353 77.24 200.713 79.88 200.713 83.24C200.713 86.6 203.353 89.24 206.593 89.24ZM206.593 87.68C204.313 87.68 202.393 85.736 202.393 83.24C202.393 80.72 204.313 78.8 206.593 78.8C208.873 78.8 210.793 80.72 210.793 83.24C210.793 85.76 208.873 87.68 206.593 87.68ZM215.475 84.2C215.475 87.2 217.515 89.24 220.155 89.24C221.403 89.24 222.315 88.808 222.963 88.352C223.323 88.088 223.635 87.776 223.875 87.44V89H225.555V77.48H223.875V83.84C223.875 86.144 222.315 87.68 220.395 87.68C218.595 87.68 217.155 86.24 217.155 84.2V77.48H215.475V84.2ZM229.514 89H231.194V82.64C231.194 80.336 232.754 78.8 234.794 78.8C236.618 78.8 237.914 80.12 237.914 82.16V89H239.594V82.16C239.594 79.16 237.674 77.24 234.914 77.24C233.642 77.24 232.754 77.72 232.106 78.2C231.746 78.488 231.434 78.8 231.194 79.16V77.48H229.514V89ZM244.161 85.88C244.161 88.064 245.337 89.24 247.329 89.24C247.785 89.24 248.193 89.168 248.481 89.072C248.649 89 248.817 88.952 248.961 88.88V87.32C248.841 87.392 248.673 87.44 248.505 87.512C248.217 87.608 247.809 87.68 247.401 87.68C246.441 87.68 245.841 87.104 245.841 85.88V79.04H248.361V77.48H245.841V73.64H244.281V76.28C244.281 77.072 243.969 77.48 243.321 77.48H242.001V79.04H244.161V85.88ZM251.61 73.64C251.61 74.24 252.09 74.72 252.69 74.72C253.29 74.72 253.77 74.24 253.77 73.64C253.77 73.04 253.29 72.56 252.69 72.56C252.09 72.56 251.61 73.04 251.61 73.64ZM251.85 89H253.53V77.48H251.85V89ZM257.381 89H259.061V82.64C259.061 80.336 260.621 78.8 262.661 78.8C264.485 78.8 265.781 80.12 265.781 82.16V89H267.461V82.16C267.461 79.16 265.541 77.24 262.781 77.24C261.509 77.24 260.621 77.72 259.973 78.2C259.613 78.488 259.301 78.8 259.061 79.16V77.48H257.381V89ZM270.943 91.64C271.255 92.096 271.663 92.48 272.119 92.84C272.911 93.44 274.111 94.04 275.743 94.04C278.863 94.04 281.383 91.52 281.383 88.28V77.48H279.703V79.04C279.487 78.728 279.175 78.416 278.815 78.152C278.167 77.696 277.231 77.24 275.863 77.24C272.863 77.24 270.463 79.76 270.463 83C270.463 86.24 272.863 88.76 275.863 88.76C277.231 88.76 278.167 88.328 278.815 87.872C279.175 87.608 279.487 87.296 279.703 86.96V88.28C279.703 90.68 277.927 92.48 275.743 92.48C274.519 92.48 273.631 92 272.983 91.52C272.623 91.232 272.287 90.92 272.023 90.56L270.943 91.64ZM275.863 87.2C273.847 87.2 272.143 85.4 272.143 83C272.143 80.6 273.847 78.8 275.863 78.8C278.023 78.8 279.703 80.6 279.703 83C279.703 85.4 278.023 87.2 275.863 87.2ZM304.184 84.68C303.776 85.232 303.296 85.712 302.744 86.12C301.784 86.864 300.344 87.56 298.424 87.56C294.584 87.56 291.584 84.56 291.584 80.6C291.584 76.64 294.584 73.64 298.424 73.64C300.344 73.64 301.736 74.336 302.672 75.08C303.224 75.488 303.68 75.968 304.064 76.52L305.264 75.44C304.784 74.792 304.208 74.216 303.56 73.712C302.408 72.848 300.728 71.96 298.424 71.96C293.624 71.96 289.784 75.8 289.784 80.6C289.784 85.4 293.624 89.24 298.424 89.24C300.728 89.24 302.432 88.376 303.608 87.512C304.304 87.008 304.88 86.408 305.384 85.76L304.184 84.68ZM313.069 89.24C316.309 89.24 318.949 86.6 318.949 83.24C318.949 79.88 316.309 77.24 313.069 77.24C309.829 77.24 307.189 79.88 307.189 83.24C307.189 86.6 309.829 89.24 313.069 89.24ZM313.069 87.68C310.789 87.68 308.869 85.736 308.869 83.24C308.869 80.72 310.789 78.8 313.069 78.8C315.349 78.8 317.269 80.72 317.269 83.24C317.269 85.76 315.349 87.68 313.069 87.68ZM321.951 89H323.631V82.64C323.631 80.24 325.095 78.8 326.751 78.8C328.455 78.8 329.631 79.976 329.631 82.16V89H331.311V82.64C331.311 80.24 332.775 78.8 334.431 78.8C336.135 78.8 337.311 79.952 337.311 82.16V89H338.991V82.16C338.991 78.944 337.071 77.24 334.551 77.24C333.111 77.24 332.127 77.768 331.479 78.272C331.119 78.56 330.807 78.896 330.591 79.28C330.375 78.896 330.111 78.56 329.775 78.272C329.199 77.768 328.239 77.24 326.871 77.24C325.719 77.24 324.951 77.672 324.399 78.08C324.087 78.344 323.847 78.608 323.631 78.92V77.48H321.951V89ZM342.834 94.04H344.514V87.32C344.778 87.68 345.09 87.992 345.498 88.28C346.146 88.76 347.13 89.24 348.474 89.24C351.594 89.24 354.114 86.72 354.114 83.24C354.114 79.76 351.594 77.24 348.474 77.24C347.13 77.24 346.146 77.72 345.498 78.2C345.09 78.488 344.778 78.8 344.514 79.16V77.48H342.834V94.04ZM348.474 87.68C346.458 87.68 344.514 85.76 344.514 83.24C344.514 80.72 346.458 78.8 348.474 78.8C350.658 78.8 352.434 80.624 352.434 83.24C352.434 85.856 350.658 87.68 348.474 87.68ZM365.748 85.76C365.484 86.12 365.148 86.432 364.788 86.72C364.14 87.2 363.252 87.68 362.028 87.68C359.844 87.68 358.068 85.88 357.948 83.84L367.307 83.864L367.356 83.624C367.38 83.456 367.428 83.264 367.428 83C367.428 79.64 365.052 77.24 361.908 77.24C358.908 77.24 356.268 79.88 356.268 83.24C356.268 86.6 358.884 89.24 362.028 89.24C363.588 89.24 364.764 88.64 365.604 88.04C366.084 87.68 366.492 87.296 366.828 86.84L365.748 85.76ZM357.948 82.4C358.212 80.48 359.844 78.8 361.908 78.8C363.948 78.8 365.484 80.36 365.748 82.4H357.948ZM371.38 85.88C371.38 88.064 372.556 89.24 374.548 89.24C375.004 89.24 375.412 89.168 375.7 89.072C375.868 89 376.036 88.952 376.18 88.88V87.32C376.06 87.392 375.892 87.44 375.724 87.512C375.436 87.608 375.028 87.68 374.62 87.68C373.66 87.68 373.06 87.104 373.06 85.88V79.04H375.58V77.48H373.06V73.64H371.5V76.28C371.5 77.072 371.188 77.48 370.54 77.48H369.22V79.04H371.38V85.88ZM378.828 73.64C378.828 74.24 379.308 74.72 379.908 74.72C380.508 74.72 380.988 74.24 380.988 73.64C380.988 73.04 380.508 72.56 379.908 72.56C379.308 72.56 378.828 73.04 378.828 73.64ZM379.068 89H380.748V77.48H379.068V89ZM385.56 85.88C385.56 88.064 386.736 89.24 388.728 89.24C389.184 89.24 389.592 89.168 389.88 89.072C390.048 89 390.216 88.952 390.36 88.88V87.32C390.24 87.392 390.072 87.44 389.904 87.512C389.616 87.608 389.208 87.68 388.8 87.68C387.84 87.68 387.24 87.104 387.24 85.88V79.04H389.76V77.48H387.24V73.64H385.68V76.28C385.68 77.072 385.368 77.48 384.72 77.48H383.4V79.04H385.56V85.88ZM393.008 73.64C393.008 74.24 393.488 74.72 394.088 74.72C394.688 74.72 395.168 74.24 395.168 73.64C395.168 73.04 394.688 72.56 394.088 72.56C393.488 72.56 393.008 73.04 393.008 73.64ZM393.248 89H394.928V77.48H393.248V89ZM403.819 89.24C407.059 89.24 409.699 86.6 409.699 83.24C409.699 79.88 407.059 77.24 403.819 77.24C400.579 77.24 397.939 79.88 397.939 83.24C397.939 86.6 400.579 89.24 403.819 89.24ZM403.819 87.68C401.539 87.68 399.619 85.736 399.619 83.24C399.619 80.72 401.539 78.8 403.819 78.8C406.099 78.8 408.019 80.72 408.019 83.24C408.019 85.76 406.099 87.68 403.819 87.68ZM412.701 89H414.381V82.64C414.381 80.336 415.941 78.8 417.981 78.8C419.805 78.8 421.101 80.12 421.101 82.16V89H422.781V82.16C422.781 79.16 420.861 77.24 418.101 77.24C416.829 77.24 415.941 77.72 415.293 78.2C414.933 78.488 414.621 78.8 414.381 79.16V77.48H412.701V89Z" fill="#FDA305"/>
<defs>
<linearGradient id="paint0_linear" x1="139" y1="0" x2="178.801" y2="100.189" gradientUnits="userSpaceOnUse">
<stop stop-color="#F25500"/>
<stop offset="1" stop-color="#FDA305"/>
</linearGradient>
</defs>
</svg>
