<svg width="138" height="704" viewBox="0 0 138 704" fill="none" xmlns="http://www.w3.org/2000/svg">
<mask id="mask0" mask-type="alpha" maskUnits="userSpaceOnUse" x="0" y="0" width="138" height="704">
<rect width="138" height="704" fill="#C4C4C4"/>
</mask>
<g mask="url(#mask0)">
<path fill-rule="evenodd" clip-rule="evenodd" d="M36.9863 58.4596L36.9863 0.00409428L95.9805 0.00409428L95.9805 58.4596C95.9805 90.6105 69.4335 116.915 36.9863 116.915L36.9863 58.4596Z" fill="#101B6A"/>
<path fill-rule="evenodd" clip-rule="evenodd" d="M36.9824 175.366H-22.0117L-22.0117 116.911C10.4355 116.911 36.9824 143.216 36.9824 175.366Z" fill="#AB1459"/>
<path fill-rule="evenodd" clip-rule="evenodd" d="M37.002 583.752H-21.9922C10.455 583.752 37.002 557.447 37.002 525.296C69.4492 525.296 95.9961 551.601 95.9961 583.752H37.002Z" fill="#101B6A"/>
<path fill-rule="evenodd" clip-rule="evenodd" d="M-21.9922 583.748H37.002L37.002 642.203H95.9961V700.659H37.002C4.55477 700.659 -21.9922 674.354 -21.9922 642.203L-21.9922 583.748Z" fill="#AB1459"/>
<path d="M37.002 583.748H95.9961L95.9961 642.203H37.002L37.002 583.748Z" fill="#FEF104"/>
<path fill-rule="evenodd" clip-rule="evenodd" d="M-21.9883 525.293H37.0059H96C96 493.142 69.4531 466.837 37.0059 466.837H-21.9883V525.293Z" fill="#40A6FF"/>
<path d="M-21.9922 466.838H37.002V408.383H-21.9922V466.838Z" fill="#AB1459"/>
<path fill-rule="evenodd" clip-rule="evenodd" d="M37.0059 408.387C37.0059 376.236 63.5528 349.931 96 349.931H37.0059H-21.9883V408.387H37.0059Z" fill="#FEF104"/>
<path fill-rule="evenodd" clip-rule="evenodd" d="M37.0059 466.837H96V525.293C96 493.142 69.4531 466.837 37.0059 466.837ZM96 408.382V349.926C63.5528 349.926 37.0059 376.231 37.0059 408.382V466.837H96V408.382Z" fill="#101B6A"/>
<path d="M-10.1057 379.154C-10.1057 388.839 -2.1819 396.691 7.59263 396.691C17.3672 396.691 25.291 388.839 25.291 379.154C25.291 369.469 17.3672 361.617 7.59263 361.617C-2.1819 361.617 -10.1057 369.469 -10.1057 379.154Z" fill="#A9ABAE"/>
<path fill-rule="evenodd" clip-rule="evenodd" d="M36.9824 116.911C69.4296 116.911 95.9766 90.6064 95.9766 58.4554V116.911L95.9766 175.366L36.9824 175.366L36.9824 116.911L36.9824 58.4554L36.9824 -9.36858e-05C4.53522 -9.36858e-05 -22.0117 26.3045 -22.0117 58.4554L-22.0117 116.911C10.4355 116.911 36.9824 143.216 36.9824 175.366L36.9824 116.911ZM36.9824 58.4554L-22.0117 58.4554L36.9824 58.4554Z" fill="#40A6FF"/>
<path fill-rule="evenodd" clip-rule="evenodd" d="M-21.9922 525.296H37.002C37.002 557.447 10.455 583.752 -21.9922 583.752L-21.9922 525.296Z" fill="#A9ABAE"/>
<path d="M19.2439 642.203C19.2439 632.518 27.1677 624.666 36.9423 624.666C46.7168 624.666 54.6406 632.518 54.6406 642.203C54.6406 651.888 46.7168 659.74 36.9423 659.74C27.1677 659.74 19.2439 651.888 19.2439 642.203Z" fill="#40A6FF"/>
<path fill-rule="evenodd" clip-rule="evenodd" d="M-21.9883 174.559L37.0059 174.559H96C96 206.71 69.4531 233.014 37.0059 233.014H-21.9883L-21.9883 174.559Z" fill="#40A6FF"/>
<path d="M-21.9922 233.013H37.002L37.002 291.469H-21.9922L-21.9922 233.013Z" fill="#AB1459"/>
<path fill-rule="evenodd" clip-rule="evenodd" d="M37.0059 291.465C37.0059 323.616 63.5528 349.92 96 349.92H37.0059H-21.9883L-21.9883 291.465H37.0059Z" fill="#FEF104"/>
<path fill-rule="evenodd" clip-rule="evenodd" d="M37.0059 233.014H96L96 174.559C96 206.71 69.4531 233.014 37.0059 233.014ZM96 291.47L96 349.925C63.5528 349.925 37.0059 323.621 37.0059 291.47L37.0059 233.014H96V291.47Z" fill="#101B6A"/>
<path d="M-10.1057 320.697C-10.1057 311.012 -2.1819 303.161 7.59263 303.161C17.3672 303.161 25.291 311.012 25.291 320.697C25.291 330.383 17.3672 338.234 7.59263 338.234C-2.1819 338.234 -10.1057 330.383 -10.1057 320.697Z" fill="#A9ABAE"/>
</g>
</svg>
